<?xml version="1.0" encoding="UTF-8"?>
<svg id="logo" data-name="logo" xmlns="http://www.w3.org/2000/svg" viewBox="0 0 290 92">
  <g>
    <path fill="#fff" d="m27.73,39.96c0-.55.45-1,1-1h38.5c.55,0,1,.45,1,1s-.45,1-1,1h-7.25l-7.3,24.65c-.15.45-.55.75-.95.75h-17.7c-.3,0-.6-.15-.8-.45-.2-.25-.25-.55-.15-.85l7.15-24.1h-11.5c-.55,0-1-.45-1-1Zm34.3-13.5c.6,0,1,.45,1,1s-.4,1-1,1h-31.8c-.55,0-1-.45-1-1s.45-1,1-1h31.8Zm4.25-3c.6,0,1,.45,1,1v6.4c0,.55-.4,1-1,1-.55,0-1-.45-1-1v-6.4c0-.55.45-1,1-1Zm4.6,0c.55,0,1,.45,1,1v6.4c0,.55-.45,1-1,1s-1-.45-1-1v-6.4c0-.55.45-1,1-1Z"/>
    <path fill="#fff" d="m77.38,27.11c0-.55.45-1,1-1h15.5c.55,0,1,.45,1,1s-.45,1-1,1h-15.5c-.55,0-1-.45-1-1Zm0,12.85c0-.55.45-1,1-1h15.5c.55,0,1,.45,1,1s-.45,1-1,1h-15.5c-.55,0-1-.45-1-1Zm41.65-4.25l-11.9,30c-.15.4-.55.65-.95.65h-17.2c-.3,0-.6-.15-.8-.45-.2-.25-.25-.6-.1-.95l11.9-30c.15-.4.55-.65.95-.65h17.15c.35,0,.65.2.85.45.2.3.2.65.1.95Zm-7.75-14.6c.55,0,1,.45,1,1v6.45c0,.55-.45,1-1,1s-1-.45-1-1v-6.45c0-.55.45-1,1-1Zm4.6,0c.55,0,1,.45,1,1v6.45c0,.55-.45,1-1,1s-1-.45-1-1v-6.45c0-.55.45-1,1-1Z"/>
    <path fill="#fff" d="m127.23,27.11c0-.55.45-1,1-1h15.5c.55,0,1,.45,1,1s-.45,1-1,1h-15.5c-.55,0-1-.45-1-1Zm0,12.85c0-.55.45-1,1-1h15.5c.55,0,1,.45,1,1s-.45,1-1,1h-15.5c-.55,0-1-.45-1-1Zm41.55-5.2c.15.3.2.65.1.95l-11.95,30c-.15.4-.5.65-.9.65h-17.2c-.35,0-.65-.15-.8-.45-.2-.25-.25-.6-.1-.95l11.9-30c.15-.4.5-.65.95-.65h17.15c.35,0,.65.2.85.45Z"/>
    <path fill="#fff" d="m190.73,28.11h-16.5c-.55,0-1-.45-1-1s.45-1,1-1h16.5c.55,0,1,.45,1,1s-.45,1-1,1Zm22.7,6.65c.2.3.25.65.1.95l-11.9,30c-.15.4-.55.65-.95.65h-18.15c-.35,0-.65-.15-.85-.45-.2-.25-.2-.6-.1-.95l11.9-30c.15-.4.55-.65.95-.65h18.2c.3,0,.6.2.8.45Z"/>
    <path fill="#fff" d="m219.53,48.06l7.75-21.4c.1-.45.5-.75.95-.75h34.25c.3,0,.6.15.8.4.2.2.25.55.2.85l-13.55,38.4c-.1.45-.55.8-1,.8h-17.15c-.35,0-.6-.15-.8-.35-.2-.25-.25-.55-.2-.85l13.3-37.25h-15.1c-.35,1.4-7.55,20.7-7.55,20.7-.15.5-.7.85-1.2.7-.55-.15-.85-.7-.7-1.25Z"/>
  </g>
  <g>
    <path fill="#fff" d="m93.63,83h-47.13c-20.71,0-37.5-16.79-37.5-37.5h0c0-20.71,16.79-37.5,37.5-37.5h76.88l3.17-8H46C20.59,0,0,20.59,0,46h0c0,25.41,20.59,46,46,46h44.06l3.57-9Z"/>
    <path fill="#fff" d="m244,0h-47l-3.19,8h49.69c20.71,0,37.5,16.79,37.5,37.5h0c0,20.71-16.79,37.5-37.5,37.5h-79.56l-3.59,9h83.65c25.41,0,46-20.59,46-46h0c0-25.41-20.59-46-46-46Z"/>
  </g>
</svg>